<?xml version="1.0" encoding="utf-8"?>
<!-- Generator: Adobe Illustrator 23.0.3, SVG Export Plug-In . SVG Version: 6.00 Build 0)  -->
<svg version="1.1" id="Layer_1" xmlns="http://www.w3.org/2000/svg" xmlns:xlink="http://www.w3.org/1999/xlink" x="0px" y="0px"
	 viewBox="0 0 201.7 37.9" style="enable-background:new 0 0 201.7 37.9;" xml:space="preserve">
<style type="text/css">
	.st0{fill:#FFFFFF;}
</style>
<g>
	<path class="st0" d="M45.1,15.6c-6.4-1.6-7.7-1.9-7.7-3.9c0-2.2,2.1-2.9,3.9-2.9c2.7,0,4.9,0.8,5.1,3.9h5.5c0-5.9-4.9-8.3-10.3-8.3
		C36.9,4.5,32,7,32,12.2c0,4.8,3.8,6.3,7.7,7.3c3.8,1,7.6,1.5,7.6,4.2c0,2.6-3,3.2-5,3.2c-3,0-5.7-1.3-5.7-4.7h-5.5
		c-0.1,6.3,5.2,9.1,10.9,9.1c7,0,10.7-3.5,10.7-8.2C52.7,17.3,47,16.1,45.1,15.6z M71.8,12.1h-6l-6.4,6.7V5.1h-5.1v25.6h5.1v-6.4
		l2-1.9l5.1,8.3h6.2L64.8,19L71.8,12.1z M84.9,21.9c0,3.8-1.2,5.3-3.9,5.3c-2.4,0-3.3-1.5-3.3-4.6V12.1h-5.1v11.4
		c0,4.6,1.4,7.7,6.8,7.7c2.2,0,4.4-1,5.7-3.1h0.1v2.6H90V12.1h-5.1V21.9z M21.3,10.6c-1-2.8,5.7-9.9-6.6-9.9
		C4.1,0.7,3.1,11.1,2.7,12c-0.5,0.9-1.2,1.6-1.5,3.1c-0.3,1.3,0,2.8,0.9,2.8c1.3,0-0.3-2.6,1.3-2.6c2,0,4.4,3.3,5.1,5.2
		c-1.1,1.9-2.6,3.2-3.7,2.7c-1.1-0.5-2.2-1.3-2.2-3c0-1.2-1.1-1.2-1,0.4c0.1,2.1,1.2,3.3,2.6,4.4c1.4,1.1,3.3,3.2,4,5
		c0.5,1.2,1.2,1.8,3,1.8c1.8,0,0.4,1.6,1.7,1.6c1.2,0,0.5-1.7,1.2-1.7c0.7,0,0,1.6,1.4,1.6c2.1,0,1.2-2.6,1.8-3.1
		c0.7-0.4,9.7-5.2,9.5-11.1C26.5,13.1,22.3,13.4,21.3,10.6z M12.5,27.3c-0.5-0.6-2.5-0.7-3.3-0.4c-0.8,0.3-1.6-0.2-0.9-2.2
		c0.6-2,1.3-2.9,1.3-2.9s4.3,4.6,4.3,5.2C14,27.7,13,27.9,12.5,27.3z M18.6,23.9c-2.6,0-4.7-2.2-4.7-4.9c0-2.7,2.1-4.9,4.7-4.9
		c2.6,0,4.7,2.2,4.7,4.9C23.3,21.7,21.2,23.9,18.6,23.9z M155.3,11.6c-2.2,0-4.4,1-5.7,3.1h-0.1v-2.6h-4.9v18.6h5.1V21
		c0-3.8,1.2-5.3,3.9-5.3c2.4,0,3.3,1.5,3.3,4.6v10.5h5.1V19.3C162.1,14.7,160.7,11.6,155.3,11.6z M196,12.1l-4.1,12.7h-0.1
		l-4.2-12.7h-5.4V5.1h-5.1v9.3h-0.1c-1.1-1.8-3.3-2.8-5.5-2.8c-5.5,0-8.2,4.6-8.2,9.6c0,5.1,2.7,10,8.3,10c2.4,0,4.5-0.9,5.6-2.9
		h0.1v2.4h4.8V12.4l6.4,17.1c0.6,1.5,0,3.3-1.8,3.5c-1,0-2-0.1-3-0.2v4.2c1,0.1,2.1,0.2,3.1,0.2c3.5,0,5.3-1.2,6.4-4.2l7.8-20.9H196
		z M173,27.4c-3.2,0-4.5-3.1-4.5-6c0-3.1,1.1-5.9,4.5-5.9c3.3,0,4.4,2.9,4.4,5.9C177.4,24.4,176.4,27.4,173,27.4z M92.2,30.7h5.1
		V5.1h-5.1V30.7z M142.5,16.9c0-4.5-4.5-5.3-8.2-5.3c-4.2,0-8.4,1.4-8.7,6.2h5.1c0.2-2,1.4-2.8,3.4-2.8c1.8,0,3.3,0.3,3.3,2.5
		c0,2.1-2.9,2-6,2.4c-3.2,0.4-6.3,1.4-6.3,5.6c0,3.8,2.8,5.6,6.3,5.6c2.3,0,4.6-0.6,6.2-2.3c0,0.6,0.2,1.2,0.4,1.8h5.2
		c-0.5-0.8-0.6-2.4-0.6-4.1V16.9z M137.4,23.5c0,1.1-0.1,4.3-4.1,4.3c-1.6,0-3.1-0.5-3.1-2.4c0-1.9,1.4-2.4,3-2.7
		c1.6-0.3,3.4-0.3,4.2-1.1V23.5z M99.7,30.7h5.1V5.1h-5.1V30.7z M115.8,27.4c-3.2,0-4.2-3.2-4.2-5.9c0-2.7,1.1-6,4.3-6
		c2.1,0,3.4,1.1,3.8,3.2h5c-0.3-4.7-4.3-7-8.7-7c-6,0-9.5,4.3-9.5,10.1c0,5.6,3.8,9.5,9.4,9.5c4.9,0,8.3-2.7,8.9-7.6h-4.9
		C119.5,25.9,118.2,27.4,115.8,27.4z"/>
</g>
</svg>
